<?xml version="1.0" encoding="utf-8"?><!-- Generator: Adobe Illustrator 21.1.0, SVG Export Plug-In . SVG Version: 6.00 Build 0)  --><svg xmlns="http://www.w3.org/2000/svg" xmlns:xlink="http://www.w3.org/1999/xlink" viewBox="0 0 64 64" width="64px" height="64px"><g id="_x35_0_Air_Conditioner_Climete_Cooler_House_Interior_Environment"></g><g id="_x34_9_Thermometer_Heater_Climate_Control_House_Home"></g><g id="_x34_8_Plan_Blueprint_Apartment_Home_House_Flat_Interior"></g><g id="_x34_7_Plant_Pot_Green_Interior_Home_House"></g><g id="_x34_6_Washing_Machine_Laundry_Bathroom_Interior_Home_House"></g><g id="_x34_5_Radiator_Heat_Climate_Warm_Interior_House_Home"></g><g id="_x34_4_Toaster_Bread_Electronic_Device_Kitchen_House"></g><g id="_x34_3_Lamp_LED_Light_Interior_Home_House"></g><g id="_x34_2_Window_Glass_Interior_Exterior_House_Home"></g><g id="_x34_1_Chair_Armchair_Lounge_Furniture_House_Interior"></g><g id="_x34_0_Image_Photo_Instant_Polaroid_Frames_Gallery"></g><g id="_x33_9_Polaroid_Photocamera_Vintage_Photo_Image_Instant"></g><g id="_x33_8_Printer_Print_Paper_Photo_Ink_Color_Polygraphy"></g><g id="_x33_7_Memory_Card_Stick_Data_Files_Flash_Drive"></g><g id="_x33_6_Image_Photo_Gallery_Slideshow_Landscape"></g><g id="_x33_5_Film_Tape_Photo_Frame_Image"></g><g id="_x33_4_Film_Movie_Photo_Image_Slideshow_Projection_1_"></g><g id="_x33_3_Photo_Photocamera_Lens_Image_Gallery_Shot"></g><g id="_x33_2_Crop_Tool_Photo_Frame_Image"></g><g id="_x33_1_Video_Camera_Photo_Movie_Film"></g><g id="_x33_0_Radiator_Cooler_Heater_Pipes_Antifreeze"></g><g id="_x32_9_Freshener_Spruce_Needles_Smell_Clean"></g><g id="_x32_8_Jerrycan_Can_Gasoline_Fuel_Oil_Tank"></g><g id="_x32_7_Brake_Disk_Car_Part_Automotive_Wheel"></g><g id="_x32_6_Parking_Garage_Place_Car_Automotive_Space"></g><g id="_x32_5_Drive_Car_Transmission_Selector_Gearbox_Shifter"></g><g id="_x32_4_Car_Door_Automotive_Handle_Window"></g><g id="_x32_3_Steering_Wheel_Car_Automotive_Helm_Rudder"></g><g id="_x32_2_Battery_Electricity_Automotive_Charge"></g><g id="_x32_1_Vehicle_Car_Truck_Automobile_Cargo"></g><g id="_x32_0_Directory_Office_Folder_File_Paper"></g><g id="_x31_9_Office_Home_Building_Work_House"></g><g id="_x31_8_Aim_Circle_Arrow_Office_Bow"></g><g id="_x31_7_Trash_Delete_Garbage_Basket_File_Waste"><g><path d="M21,12c-0.6,0-1,0.4-1,1v2c0,0.6,0.4,1,1,1s1-0.4,1-1v-2C22,12.4,21.6,12,21,12z"/><path d="M16,12c-0.6,0-1,0.4-1,1v2c0,0.6,0.4,1,1,1s1-0.4,1-1v-2C17,12.4,16.6,12,16,12z"/><path d="M26,12c-0.6,0-1,0.4-1,1v2c0,0.6,0.4,1,1,1s1-0.4,1-1v-2C27,12.4,26.6,12,26,12z"/><path d="M31,12c-0.6,0-1,0.4-1,1v2c0,0.6,0.4,1,1,1s1-0.4,1-1v-2C32,12.4,31.6,12,31,12z"/><path d="M37,12c-0.6,0-1,0.4-1,1v2c0,0.6,0.4,1,1,1s1-0.4,1-1v-2C38,12.4,37.6,12,37,12z"/><path d="M42,12c-0.6,0-1,0.4-1,1v2c0,0.6,0.4,1,1,1s1-0.4,1-1v-2C43,12.4,42.6,12,42,12z"/><path d="M47,12c-0.6,0-1,0.4-1,1v2c0,0.6,0.4,1,1,1s1-0.4,1-1v-2C48,12.4,47.6,12,47,12z"/><path d="M52,12c-0.6,0-1,0.4-1,1v2c0,0.6,0.4,1,1,1s1-0.4,1-1v-2C53,12.4,52.6,12,52,12z"/><path d="M34,47c0.6,0,1-0.4,1-1V26c0-0.6-0.4-1-1-1s-1,0.4-1,1v20C33,46.6,33.4,47,34,47z"/><path d="M42,47C42,47,42,47,42,47c0.6,0,1-0.4,1-0.9l1-20c0-0.6-0.4-1-0.9-1c-0.6,0-1,0.4-1,0.9l-1,20C41,46.5,41.4,47,42,47z"/><path d="M26,47C26,47,26,47,26,47c0.6,0,1-0.5,1-1l-1-20c0-0.6-0.5-1-1-0.9c-0.6,0-1,0.5-0.9,1l1,20C25,46.6,25.5,47,26,47z"/><path d="M55,8H43.5l-3.1-4.7C39.9,2.5,38.9,2,37.9,2h-7.9c-1,0-1.9,0.5-2.5,1.3L24.5,8H13c-1.7,0-3,1.3-3,3v6c0,1.7,1.3,3,3,3h0.1l3.5,33.5c0.3,2.6,2.4,4.5,5,4.5h24.8c2.6,0,4.7-1.9,5-4.5L54.9,20H55c1.7,0,3-1.3,3-3v-6C58,9.3,56.7,8,55,8z M29.2,4.4C29.4,4.2,29.7,4,30.1,4h7.9c0.3,0,0.6,0.2,0.8,0.4L41.1,8H26.9L29.2,4.4z M49.4,53.3c-0.2,1.5-1.4,2.7-3,2.7H21.6c-1.5,0-2.8-1.2-3-2.7L15.1,20h37.8L49.4,53.3z M56,17c0,0.6-0.4,1-1,1h-1H14c0,0,0,0-0.1,0c0,0,0,0-0.1,0H13c-0.6,0-1-0.4-1-1v-6c0-0.6,0.4-1,1-1h10.1h21.7H55c0.6,0,1,0.4,1,1V17z"/><path d="M41,54h4c0.6,0,1-0.4,1-1s-0.4-1-1-1h-4c-0.6,0-1,0.4-1,1S40.4,54,41,54z"/><path d="M23,54h14c0.6,0,1-0.4,1-1s-0.4-1-1-1H23c-0.6,0-1,0.4-1,1S22.4,54,23,54z"/></g></g><g id="_x31_6_Display_Chart_Graph_Computer_Equalizer"></g><g id="_x31_5_Presentation_Graph_Keynote_Chart_Screen_Whiteboard_Diagram"></g><g id="_x31_4_Mail_Stamp_Postmark_Address_Message"></g><g id="_x31_3_Inbox_Box_Paper_Office_Mail_Incoming_Archive"></g><g id="_x31_2_Office_Coffee_Cup_Tea_Hot_Drink"></g><g id="_x31_1_Paper_Shredder_Office_Recycle_Destruction"></g><g id="_x31_0_Bag_Shopping_Cart_Store_Sale_Shop"></g><g id="_x30_9_Calculator_Numbers_Math_Finance_Plus_Multiplication"></g><g id="_x30_8_Present_Sale_Discount_Box_Gift"></g><g id="_x30_7_Wallet_Money_Cash_Dollar_Deposit"></g><g id="_x30_6_Coupon_Ticket_Percent_Sale_Discount"></g><g id="_x30_5_Safe_Money_Deposit_Bank_Account"></g><g id="_x30_4_Shopping_Cart_Bag_Store_Shop_Commerce"></g><g id="_x30_3_Visa_Mastercard_Credit_Card_Plastic_Transaction_Money"></g><g id="_x30_2_Bill_Payment_Money_Finance_Paper_Dollar_Currency"></g><g id="_x30_1_Money_Dollar_Banknote_Bank_Currency_Finance"></g></svg>